<svg fill="none" height="63" viewBox="0 0 78 63" width="78" xmlns="http://www.w3.org/2000/svg"><g fill="#fff"><path d="m25.983 63c4.1421 0 7.5-3.3579 7.5-7.5s-3.3579-7.5-7.5-7.5c-4.1422 0-7.5 3.3579-7.5 7.5s3.3578 7.5 7.5 7.5z"/><path d="m59.982 63c4.1421 0 7.5-3.3579 7.5-7.5s-3.3579-7.5-7.5-7.5-7.5 3.3579-7.5 7.5 3.3579 7.5 7.5 7.5z"/><path clip-rule="evenodd" d="m11.062 0h52.938s14 14.812 14 33.688v15.25s-.188 4.062-3.125 4.063h-1.709c-1.174-6.261-6.659-11-13.26-11-6.6 0-12.086 4.739-13.26 11h-7.404c-1.174-6.261-6.659-11-13.259-11s-12.086 4.739-13.259 11h-2.099s-2.564-.624-2.564-3.812v-15.615l14.751-.76s5.483-.603 6.29-3.756l-23.656-1.254c-1.86396 0-3.375-1.511-3.375-3.375s1.51104-3.375 3.375-3.375h9.056l8.31-.428s8.177-.608 8.938-3.805l-.196-.043-28.085-1.84c-1.91588 0-3.469-1.5531-3.469-3.469 0-1.91588 1.55312-3.469 3.469-3.469h4.593v-4.875s-.188-3.125 3-3.125zm40.938 8.938v15h15.812l-5.75-15z" fill-rule="evenodd"/></g></svg>