<svg fill="none" height="12" viewBox="0 0 14 12" width="14" xmlns="http://www.w3.org/2000/svg"><g fill="#c1c6ce"><path d="m2 7.99999v4.00001h4v-4.00001h2v4.00001h4v-4.00001l-5-4.484z"/><path d="m13.831 6.365-1.831-1.614v-4.751h-2.00002v2.987l-2.668-2.352c-.02-.017-.043-.023-.064-.037-.02504-.018295-.05184-.03404-.08-.047-.0309-.010805-.06269-.018837-.095-.024-.031-.006-.061-.012-.093-.012-.031 0-.061.006-.092.012-.03247.004919-.06432.0133-.095.025-.028.011-.053.029-.08.046-.021.014-.045.02-.064.037l-6.498004 5.73c-.1547359.13791-.2085713.35687-.1354286.5508.0731426.19394.2581596.32282.4654286.3242.121931.00035.239735-.04414.331-.125l6.168004-5.438 6.16902 5.438c.2088.16413.5094.13678.6852-.06235.1757-.19913.1656-.50082-.0232-.68765z"/></g></svg>