<svg fill="none" height="21" viewBox="0 0 21 21" width="21" xmlns="http://www.w3.org/2000/svg"><path clip-rule="evenodd" d="m3 0h15c1.65 0 3 1.35 3 3v15c0 1.65-1.35 3-3 3h-15c-1.65 0-3-1.35-3-3v-15c0-1.65 1.35-3 3-3zm11 10.5c0-1.93-1.57-3.5-3.5-3.5s-3.5 1.57-3.5 3.5 1.57 3.5 3.5 3.5 3.5-1.57 3.5-3.5zm-11 7.5v-9h1.181c-.1184.49127-.17914.99467-.181 1.5 0 3.5899 2.91015 6.5 6.5 6.5 3.5899 0 6.5-2.9101 6.5-6.5-.0014-.50536-.0621-1.00882-.181-1.5h1.181v9zm11-11h4v-4h-4z" fill="#fff" fill-rule="evenodd"/></svg>