<svg fill="none" height="66" viewBox="0 0 66 66" width="66" xmlns="http://www.w3.org/2000/svg"><path d="m33 66c18.2254 0 33-14.7746 33-33s-14.7746-33-33-33-33 14.7746-33 33 14.7746 33 33 33z" fill="#63a63e"/><path d="m49.641 21.066c-.3912-.3887-1.0229-.3887-1.414 0l-18.439 18.438c-.3912.3888-1.0229.3888-1.414 0l-8.14-8.139c-.3912-.3887-1.0229-.3887-1.414 0l-3.535 3.535c-.3888.3912-.3888 1.0228 0 1.414l13.089 13.09c.3911.3888 1.0228.3888 1.414 0l3.536-3.536 1.414-1.414 18.438-18.438c.3887-.3912.3887-1.0228 0-1.414z" fill="#fff"/></svg>