<svg fill="none" height="72" viewBox="0 0 59 72" width="59" xmlns="http://www.w3.org/2000/svg"><g fill="#fff"><path clip-rule="evenodd" d="m58.34 21.2499c-.5665-.7424-1.4539-1.179-2.396-1.1786h-38.67l-2.475-7.2838h-11.74102c-1.65685 0-2.9999966 1.3247-2.9999966 2.9589 0 1.6341 1.3431466 2.9589 2.9999966 2.9589h7.42402l13.5 39.7331h25.159c1.6568 0 3-1.3247 3-2.9589 0-1.6341-1.3432-2.9589-3-2.9589h-20.842l-1.726-5.0784h23.12c1.338-.0001 2.5144-.8739 2.884-2.1423l6.25-21.452c.2596-.8934.0793-1.8552-.487-2.598zm-7.781 9.5484h-4.81v-4.8092h6.211zm-17.617-4.8092v4.8082h6.807v-4.8082zm6.807 10.727v4.8083h-6.807v-4.8083zm-12.807-5.9188v-4.8082h-7.657l1.634 4.8082zm-4.013 5.9188h4.013v4.8083h-2.379zm22.82 0v4.8083h1.685l1.401-4.8083z" fill-rule="evenodd"/><path d="m27.406 71.8768c3.1928 0 5.781-2.5528 5.781-5.7018 0-3.1491-2.5882-5.7019-5.781-5.7019s-5.781 2.5528-5.781 5.7019c0 3.149 2.5882 5.7018 5.781 5.7018z"/><path d="m44.844 71.8768c3.1927 0 5.781-2.5528 5.781-5.7018 0-3.1491-2.5883-5.7019-5.781-5.7019-3.1928 0-5.781 2.5528-5.781 5.7019 0 3.149 2.5882 5.7018 5.781 5.7018z"/><path d="m29.335 10.5525 7.547 5.4167c.4358.3139.9824.4393 1.514.3474s1.0024-.3932 1.304-.8346c.646-.9232.43-2.2014-.48-2.8553l-2.373-1.7024 9.436-5.02027 4.628 11.84947h4.347l-6.044-15.4761c-.207-.53589-.6348-.95998-1.177-1.16679-.5373-.202459-1.1375-.163187-1.643.1075l-13.248 7.0491-3.022-2.16888c-.8689-.6252-2.0844-.45468-2.742.38466l-8.481 10.65011c-.1702.1819-.3073.3914-.405.6194h5.106z"/></g></svg>