<svg fill="none" height="21" viewBox="0 0 21 21" width="21" xmlns="http://www.w3.org/2000/svg"><path d="m13.273 10.5 7.422-7.42201c.389-.389.389-1.025 0-1.414l-1.359-1.358995c-.389-.3890004-1.025-.3890004-1.414 0l-7.422 7.421995-7.42201-7.421995c-.389-.3890004-1.025-.3890004-1.414 0l-1.358995 1.358995c-.3890004.389-.3890004 1.025 0 1.414l7.421995 7.42201-7.420995 7.422c-.3890004.389-.3890004 1.025 0 1.414l1.358995 1.359c.389.389 1.025.389 1.414 0l7.42201-7.422 7.422 7.422c.389.389 1.025.389 1.414 0l1.359-1.359c.389-.389.389-1.025 0-1.414z" fill="#ee3643"/></svg>