<svg fill="none" height="19" viewBox="0 0 19 19" width="19" xmlns="http://www.w3.org/2000/svg"><path d="m15.572 18.985h-.941c-4.129-.488-7.157-2.408-9.359-4.864-2.21-2.461-3.954-5.62898-4.294003-9.89298v-1.144c.078003-.774.459003-1.304.898003-1.757.549-.561 1.374-1.2830002 2.126-1.3080002.554-.01800003 1.5.3800002 1.879.8990002.329.446.504 1.339.656 2.003.154.671.505 1.643.408 2.289-.148 1.007-1.487 1.434-1.879 2.166 1.307 3.13498 3.443 5.43898 6.293 7.03098.715-.392 1.346-1.572 2.332-1.595.359-.009.818.178 1.184.286.402.121.75.275 1.104.408.596.224 1.648.521 2.004 1.021.365.513.57 1.356.49 1.879-.164 1.041-1.879 2.197-2.901 2.579z" fill="#b7bfc8"/></svg>