<svg fill="none" height="62" viewBox="0 0 78 62" width="78" xmlns="http://www.w3.org/2000/svg"><g clip-rule="evenodd" fill="#fff" fill-rule="evenodd"><path d="m0 45.875c0-8.907 7.22-16.126 16.125-16.126 8.906 0 16.126 7.219 16.125 16.126 0 8.905-7.22 16.125-16.125 16.125s-16.125-7.22-16.125-16.125zm10.9579 5.1671c1.3704 1.3704 3.2291 2.1402 5.1671 2.1399 1.938.0003 3.7967-.7695 5.1671-2.1399 1.3704-1.3703 2.1402-3.2291 2.1399-5.1671 0-4.0355-3.2715-7.307-7.307-7.307s-7.307 3.2715-7.307 7.307c-.00027 1.938.76949 3.7968 2.1399 5.1671zm49.8961-5.1681c-4.4525 0-8.062 3.6095-8.062 8.062 0 2.8803 1.5366 5.5418 4.031 6.9819 2.4944 1.4402 5.5676 1.4402 8.062 0 2.4944-1.4401 4.031-4.1016 4.031-6.9819.0005-2.1383-.8487-4.1892-2.3607-5.7013-1.512-1.512-3.563-2.3612-5.7013-2.3607zm-5.062 8.062c-.0006 2.7962 2.2658 5.0635 5.062 5.064 2.7962.0006 5.0634-2.2658 5.064-5.062s-2.2658-5.0634-5.062-5.064c-2.7962-.0005-5.0634 2.2658-5.064 5.062z"/><path d="m75.437 31.313c.438 3.312 2.461 18.414 2.461 18.414s.743 3.148-2.898 3.148h-1.955c-.389-6.402-5.69-11.479-12.191-11.479s-11.801 5.077-12.191 11.479h-10.164c.691-2.211 1.064-4.562 1.064-7 0-12.946-10.494-23.439-23.438-23.439-4.6599-.0075-9.21531 1.3808-13.079 3.986-.045-2.959-.042-13.885 2.266-20.255 0 0 1.063-2.542 3.438-3.167s24.75-3 24.75-3 2.314.062 3.126 1.875 10.562 21.875 10.562 21.875l11.812 1.378v-5.295h4v-5.833h3v11.946l5.812.679s3.078.547 3.625 4.688zm-59.312-11.48h6.958v-13.666h-6.958zm16.958 0h-6.958v-13.666h6.958zm15.917 16.167h4.016v-7h-4.016zm11.016 0h-4.016v-7h4.016zm2.984 0h4.016v-7h-4.016z"/></g></svg>