<svg fill="none" height="15" viewBox="0 0 26 15" width="26" xmlns="http://www.w3.org/2000/svg"><path d="m15.5403 11.7281c.9206-.2897 2.0992 1.9125 3.354 2.7553.9417.6385 1.663.5007 1.663.5007l3.3444-.0469s1.7478-.105.9215-1.4569c-.0683-.1125-.4843-1.0022-2.4892-2.8331-2.0964-1.91534-1.8123-1.60502.7116-4.91627 1.5379-2.01844 2.1532-3.25125 1.9606-3.77625-.1849-.50532-1.3144-.37407-1.3144-.37407l-3.7681.02532c-.3669.00093-.6779.11156-.8195.48281-.0029.00375-.598 1.56187-1.3915 2.88656-1.6765 2.80219-2.3458 2.95125-2.6231 2.77594-.6365-.40594-.4757-1.62844-.4757-2.4975 0-2.71594.416-3.84844-.8147-4.14094-.4112-.0975-.7116-.161248-1.7603-.170623-1.3404-.019688-2.47863 0-3.12382.308433-.42852.20907-.75689.6675-.55755.69375.25037.03282.81178.15 1.11222.54938.38615.5175.37459 1.67719.37459 1.67719s.22056 3.19781-.52 3.59437c-.50844.27188-1.2037-.28312-2.69918-2.8275-.76363-1.30125-1.34045-2.73937-1.34045-2.73937s-.1117-.26719-.31392-.41344c-.24074-.17344-.57778-.22875-.57778-.22875l-3.576447.0225s-.537333.015-.7347403.24562c-.1752593.20438-.0144445.62625-.0144445.62625s2.8012618 6.45094 5.9732618 9.70029c2.90815 2.9832 6.21306 2.7853 6.21306 2.7853h1.4974s.4516-.0506.6827-.2925c.2157-.225.2061-.6478.2061-.6478s-.0299-1.9772.9004-2.2678z" fill="#fff"/></svg>