<svg fill="none" height="18" viewBox="0 0 108 18" width="108" xmlns="http://www.w3.org/2000/svg"><path clip-rule="evenodd" d="m103.847 2.65853v14.79127h-2.113v-14.79127h-3.7561v-1.64347h9.6261v1.64347zm-8.1347 8.69867c-.3679.4618-.8296.7905-1.3853.9861-.5556.1957-1.2169.2935-1.9839.2935-.36 0-.7669-.0235-1.2208-.0704-.454-.047-.8296-.1018-1.127-.1644v5.0478h-2.113v-16.19996c.5947-.17218 1.1934-.29348 1.796-.363914.6027-.070435 1.2561-.105653 1.9605-.105653.9391 0 1.7374.097827 2.3948.293477.6573.19565 1.1895.52044 1.5965.97435.4069.45391.7043 1.05652.8922 1.80783.1878.7513.2817 1.6826.2817 2.79391 0 1.14261-.09 2.09739-.27 2.86435-.18.76691-.4539 1.38131-.8217 1.84301zm-1.1974-6.8204c-.1174-.56348-.3013-1.00957-.5518-1.33827-.2504-.32869-.5674-.55956-.9508-.6926-.3835-.13305-.8414-.19957-1.3735-.19957h-1.6435v8.68694h1.6435c.5321 0 .99-.0665 1.3735-.1995.3834-.1331.7004-.364.9508-.6927.2505-.32865.4344-.77474.5518-1.33822.1173-.56348.176-1.26782.176-2.11304s-.0587-1.54957-.176-2.11304zm-11.9153 8.687h-4.6956l-1.0565 4.226h-2.1131l3.9913-16.43474h3.0522l3.9913 16.43474h-2.113zm-2.3008-9.86092h-.0939l-1.9487 8.21742h3.9913zm-10.1426 1.87826h-.1174l-3.4044 10.09566h-2.113l-3.4044-10.09566h-.1174l-.7043 12.20866h-2.113l.9391-16.43474h2.5826l3.8269 11.26954h.094l3.8269-11.26954h2.5826l.9392 16.43474h-2.1131zm-15.7774 10.68266c-.4383.6417-.9665 1.0956-1.5848 1.3617s-1.3265.3991-2.1248.3991-1.5065-.133-2.1248-.3991c-.6182-.2661-1.1465-.72-1.5848-1.3617-.4382-.6418-.7708-1.5066-.9978-2.5944-.2269-1.0878-.3404-2.4535-.3404-4.09695 0-1.64348.1135-3.00913.3404-4.09696.227-1.08783.5596-1.95261.9978-2.59435.4383-.64174.9666-1.09565 1.5848-1.36174.6183-.266083 1.3265-.399127 2.1248-.399127s1.5065.133044 2.1248.399127c.6183.26609 1.1465.72 1.5848 1.36174.4382.64174.7708 1.50652.9978 2.59435s.3404 2.45348.3404 4.09696c0 1.64345-.1134 3.00915-.3404 4.09695s-.5596 1.9526-.9978 2.5944zm-1.0213-10.16614c-.1644-.90782-.3796-1.62782-.6457-2.16-.2661-.53217-.5791-.9-.9391-1.10347-.36-.20348-.7278-.30522-1.1035-.30522-.3756 0-.7435.10174-1.1035.30522-.36.20347-.673.5713-.9391 1.10347-.2661.53218-.4813 1.25218-.6457 2.16-.1643.90783-.2465 2.06609-.2465 3.47479 0 1.40865.0822 2.56695.2465 3.47475.1644.9079.3796 1.6279.6457 2.16.2661.5322.5791.9.9391 1.1035s.7279.3052 1.1035.3052c.3757 0 .7435-.1017 1.1035-.3052s.673-.5713.9391-1.1035c.2661-.5321.4813-1.2521.6457-2.16.1643-.9078.2465-2.0661.2465-3.47475 0-1.4087-.0822-2.56696-.2465-3.47479zm-12.6666 4.17914h-4.9304v7.513h-2.113v-16.43474h2.113v7.27826h4.9304v-7.27826h2.1131v16.43474h-2.1131zm-11.1513 7.513-2.9348-7.0434-2.9348 7.0434h-2.1131l3.5218-8.45214-3.1696-7.9826h2.1131l2.5826 6.57391 2.5826-6.57391h2.113l-3.1695 7.9826 3.5217 8.45214zm-17.2566-16.43474h7.9826v1.64347h-5.8695v5.4h5.1652v1.64348h-5.1652v6.10439h5.8695v1.6434h-7.9826zm-5.63475 16.43474h-2.11304v-14.79127h-3.756523v-1.64347h9.626113v1.64347h-3.75655z" fill="#fff" fill-rule="evenodd"/></svg>