<svg fill="none" height="26" viewBox="0 0 25 26" width="25" xmlns="http://www.w3.org/2000/svg"><g fill="#c5c5c5"><path clip-rule="evenodd" d="m0 13.3542c0-6.90295 5.597-12.499952 12.5-12.499952s12.5 5.597002 12.5 12.499952c0 6.903-5.597 12.5-12.5 12.5s-12.5-5.597-12.5-12.5zm21 0c0-4.68695-3.813-8.49995-8.5-8.49995s-8.5 3.813-8.5 8.49995c0 4.687 3.813 8.5 8.5 8.5s8.5-3.813 8.5-8.5z" fill-rule="evenodd"/><path d="m12.5 17.8542c2.4853 0 4.5-2.0147 4.5-4.5 0-2.4852-2.0147-4.49995-4.5-4.49995s-4.5 2.01475-4.5 4.49995c0 2.4853 2.0147 4.5 4.5 4.5z"/></g></svg>